<svg width="21" height="21" viewBox="0 0 21 21" fill="none" xmlns="http://www.w3.org/2000/svg">
<path d="M11.1932 20.4939L12.5764 14.1333C12.664 13.898 12.9088 13.7212 13.1738 13.7306L19.548 15.1212C19.7839 15.209 20.0287 15.0322 20.1455 14.7185L20.9291 11.1707C21.0167 10.9354 20.8392 10.6908 20.5248 10.5737L14.1505 9.18313C13.9147 9.09534 13.7373 8.85072 13.7462 8.58618L15.1294 2.22558C15.217 1.9903 15.0395 1.74566 14.725 1.62861L11.1696 0.840855C10.9337 0.753065 10.6889 0.929811 10.5722 1.24351L9.18904 7.60411C9.10146 7.83939 8.85665 8.01613 8.59162 8.00677L2.21735 6.61618C1.98152 6.5284 1.73672 6.70514 1.61994 7.01884L0.836281 10.5667C0.748701 10.8019 0.926161 11.0466 1.24061 11.1636L7.61488 12.5542C7.85071 12.642 8.02817 12.8867 8.01921 13.1512L6.63603 19.5118C6.54845 19.7471 6.72591 19.9917 7.04036 20.1088L10.5958 20.8965C10.8609 20.9059 11.1057 20.7291 11.1932 20.4939Z" fill="#FDD08D"/>
</svg>
